<mxfile host="app.diagrams.net" modified="2024-05-17T06:00:01.062Z" agent="Mozilla/5.0 (Windows NT 10.0; Win64; x64) AppleWebKit/537.36 (KHTML, like Gecko) Chrome/124.0.0.0 Safari/537.36 Edg/124.0.0.0" version="24.4.3" etag="7EpK0w4UwBV5LNgaxYcj" type="device">
  <diagram id="sR16V_0MBNKngsNe8nvj" name="第 1 页">
    <mxGraphModel dx="1738" dy="-7515" grid="0" gridSize="10" guides="1" tooltips="1" connect="1" arrows="1" fold="1" page="1" pageScale="1" pageWidth="700" pageHeight="950" math="0" shadow="0">
      <root>
        <mxCell id="0" />
        <mxCell id="1" parent="0" />
        <mxCell id="9" value="&lt;h3&gt;&lt;font data-font-src=&quot;https://fonts.googleapis.com/css?family=Linux+Libertine&quot; face=&quot;Linux Libertine&quot; style=&quot;font-weight: normal; font-size: 20px;&quot;&gt;COO&amp;nbsp;&lt;/font&gt;&lt;/h3&gt;" style="text;html=1;strokeColor=none;fillColor=none;align=center;verticalAlign=middle;whiteSpace=wrap;rounded=0;fontSize=18;" parent="1" vertex="1">
          <mxGeometry x="122" y="8623" width="92.5" height="29" as="geometry" />
        </mxCell>
        <mxCell id="10" value="&lt;font face=&quot;Linux Libertine&quot;&gt;src&lt;/font&gt;" style="text;html=1;strokeColor=none;fillColor=none;align=center;verticalAlign=middle;whiteSpace=wrap;rounded=0;fontSize=24;" parent="1" vertex="1">
          <mxGeometry x="10" y="8716" width="60" height="30" as="geometry" />
        </mxCell>
        <mxCell id="11" value="&lt;font data-font-src=&quot;https://fonts.googleapis.com/css?family=Linux+Libertine&quot; face=&quot;Linux Libertine&quot;&gt;dst&lt;/font&gt;" style="text;html=1;strokeColor=none;fillColor=none;align=center;verticalAlign=middle;whiteSpace=wrap;rounded=0;fontSize=24;" parent="1" vertex="1">
          <mxGeometry x="10" y="8658" width="60" height="30" as="geometry" />
        </mxCell>
        <mxCell id="12" value="&lt;font data-font-src=&quot;https://fonts.googleapis.com/css?family=Linux+Libertine&quot; face=&quot;Linux Libertine&quot;&gt;values&lt;/font&gt;" style="text;html=1;strokeColor=none;fillColor=none;align=center;verticalAlign=middle;whiteSpace=wrap;rounded=0;fontSize=24;" parent="1" vertex="1">
          <mxGeometry x="3" y="8773" width="74" height="30" as="geometry" />
        </mxCell>
        <mxCell id="13" value="" style="shape=table;startSize=0;container=1;collapsible=0;childLayout=tableLayout;fontSize=24;strokeWidth=0.5;" parent="1" vertex="1">
          <mxGeometry x="85" y="8657" width="160" height="32" as="geometry" />
        </mxCell>
        <mxCell id="14" value="" style="shape=tableRow;horizontal=0;startSize=0;swimlaneHead=0;swimlaneBody=0;strokeColor=inherit;top=0;left=0;bottom=0;right=0;collapsible=0;dropTarget=0;fillColor=none;points=[[0,0.5],[1,0.5]];portConstraint=eastwest;fontSize=24;" parent="13" vertex="1">
          <mxGeometry width="160" height="32" as="geometry" />
        </mxCell>
        <mxCell id="15" value="&lt;font data-font-src=&quot;https://fonts.googleapis.com/css?family=Linux+Libertine&quot; style=&quot;font-size: 18px;&quot;&gt;0&lt;/font&gt;" style="shape=partialRectangle;html=1;whiteSpace=wrap;connectable=0;strokeColor=#d6b656;overflow=hidden;fillColor=#fff2cc;top=0;left=0;bottom=0;right=0;pointerEvents=1;fontSize=24;strokeWidth=1;" parent="14" vertex="1">
          <mxGeometry width="54" height="32" as="geometry">
            <mxRectangle width="54" height="32" as="alternateBounds" />
          </mxGeometry>
        </mxCell>
        <mxCell id="16" value="&lt;font data-font-src=&quot;https://fonts.googleapis.com/css?family=Linux+Libertine&quot; style=&quot;font-size: 18px;&quot;&gt;0&lt;/font&gt;" style="shape=partialRectangle;html=1;whiteSpace=wrap;connectable=0;strokeColor=#d79b00;overflow=hidden;fillColor=#FFF2CC;top=0;left=0;bottom=0;right=0;pointerEvents=1;fontSize=24;strokeWidth=0;" parent="14" vertex="1">
          <mxGeometry x="54" width="52" height="32" as="geometry">
            <mxRectangle width="52" height="32" as="alternateBounds" />
          </mxGeometry>
        </mxCell>
        <mxCell id="17" value="&lt;font style=&quot;font-size: 18px;&quot; data-font-src=&quot;https://fonts.googleapis.com/css?family=Linux+Libertine&quot;&gt;0&lt;/font&gt;" style="shape=partialRectangle;html=1;whiteSpace=wrap;connectable=0;strokeColor=#d79b00;overflow=hidden;fillColor=none;top=0;left=0;bottom=0;right=0;pointerEvents=1;fontSize=24;strokeWidth=1;fillStyle=auto;" parent="14" vertex="1">
          <mxGeometry x="106" width="54" height="32" as="geometry">
            <mxRectangle width="54" height="32" as="alternateBounds" />
          </mxGeometry>
        </mxCell>
        <mxCell id="39" value="" style="shape=table;startSize=0;container=1;collapsible=0;childLayout=tableLayout;fontSize=24;strokeWidth=0.5;" parent="1" vertex="1">
          <mxGeometry x="85" y="8715" width="160" height="32" as="geometry" />
        </mxCell>
        <mxCell id="40" value="" style="shape=tableRow;horizontal=0;startSize=0;swimlaneHead=0;swimlaneBody=0;strokeColor=inherit;top=0;left=0;bottom=0;right=0;collapsible=0;dropTarget=0;fillColor=none;points=[[0,0.5],[1,0.5]];portConstraint=eastwest;fontSize=24;" parent="39" vertex="1">
          <mxGeometry width="160" height="32" as="geometry" />
        </mxCell>
        <mxCell id="41" value="&lt;font data-font-src=&quot;https://fonts.googleapis.com/css?family=Linux+Libertine&quot; style=&quot;font-size: 18px;&quot;&gt;1&lt;/font&gt;" style="shape=partialRectangle;html=1;whiteSpace=wrap;connectable=0;strokeColor=#82b366;overflow=hidden;fillColor=none;top=0;left=0;bottom=0;right=0;pointerEvents=1;fontSize=24;" parent="40" vertex="1">
          <mxGeometry width="54" height="32" as="geometry">
            <mxRectangle width="54" height="32" as="alternateBounds" />
          </mxGeometry>
        </mxCell>
        <mxCell id="42" value="&lt;font data-font-src=&quot;https://fonts.googleapis.com/css?family=Linux+Libertine&quot; style=&quot;font-size: 18px;&quot;&gt;2&lt;/font&gt;" style="shape=partialRectangle;html=1;whiteSpace=wrap;connectable=0;strokeColor=inherit;overflow=hidden;fillColor=none;top=0;left=0;bottom=0;right=0;pointerEvents=1;fontSize=24;" parent="40" vertex="1">
          <mxGeometry x="54" width="52" height="32" as="geometry">
            <mxRectangle width="52" height="32" as="alternateBounds" />
          </mxGeometry>
        </mxCell>
        <mxCell id="43" value="&lt;font style=&quot;font-size: 18px;&quot; data-font-src=&quot;https://fonts.googleapis.com/css?family=Linux+Libertine&quot;&gt;3&lt;/font&gt;" style="shape=partialRectangle;html=1;whiteSpace=wrap;connectable=0;strokeColor=#82b366;overflow=hidden;fillColor=none;top=0;left=0;bottom=0;right=0;pointerEvents=1;fontSize=24;" parent="40" vertex="1">
          <mxGeometry x="106" width="54" height="32" as="geometry">
            <mxRectangle width="54" height="32" as="alternateBounds" />
          </mxGeometry>
        </mxCell>
        <mxCell id="44" value="" style="shape=table;startSize=0;container=1;collapsible=0;childLayout=tableLayout;fontSize=24;strokeWidth=0.5;" parent="1" vertex="1">
          <mxGeometry x="85" y="8774.5" width="160" height="32" as="geometry" />
        </mxCell>
        <mxCell id="45" value="" style="shape=tableRow;horizontal=0;startSize=0;swimlaneHead=0;swimlaneBody=0;strokeColor=inherit;top=0;left=0;bottom=0;right=0;collapsible=0;dropTarget=0;fillColor=none;points=[[0,0.5],[1,0.5]];portConstraint=eastwest;fontSize=24;" parent="44" vertex="1">
          <mxGeometry width="160" height="32" as="geometry" />
        </mxCell>
        <mxCell id="46" value="&lt;font data-font-src=&quot;https://fonts.googleapis.com/css?family=Linux+Libertine&quot; style=&quot;font-size: 18px;&quot;&gt;1&lt;/font&gt;" style="shape=partialRectangle;html=1;whiteSpace=wrap;connectable=0;strokeColor=#6c8ebf;overflow=hidden;fillColor=none;top=0;left=0;bottom=0;right=0;pointerEvents=1;fontSize=24;" parent="45" vertex="1">
          <mxGeometry width="54" height="32" as="geometry">
            <mxRectangle width="54" height="32" as="alternateBounds" />
          </mxGeometry>
        </mxCell>
        <mxCell id="47" value="&lt;font data-font-src=&quot;https://fonts.googleapis.com/css?family=Linux+Libertine&quot; style=&quot;font-size: 18px;&quot;&gt;3&lt;/font&gt;" style="shape=partialRectangle;html=1;whiteSpace=wrap;connectable=0;strokeColor=#d79b00;overflow=hidden;fillColor=none;top=0;left=0;bottom=0;right=0;pointerEvents=1;fontSize=24;" parent="45" vertex="1">
          <mxGeometry x="54" width="52" height="32" as="geometry">
            <mxRectangle width="52" height="32" as="alternateBounds" />
          </mxGeometry>
        </mxCell>
        <mxCell id="48" value="&lt;font style=&quot;font-size: 18px;&quot; data-font-src=&quot;https://fonts.googleapis.com/css?family=Linux+Libertine&quot;&gt;10&lt;/font&gt;" style="shape=partialRectangle;html=1;whiteSpace=wrap;connectable=0;strokeColor=#6c8ebf;overflow=hidden;fillColor=none;top=0;left=0;bottom=0;right=0;pointerEvents=1;fontSize=24;" parent="45" vertex="1">
          <mxGeometry x="106" width="54" height="32" as="geometry">
            <mxRectangle width="54" height="32" as="alternateBounds" />
          </mxGeometry>
        </mxCell>
        <mxCell id="49" value="&lt;h3&gt;&lt;font data-font-src=&quot;https://fonts.googleapis.com/css?family=Linux+Libertine&quot; face=&quot;Linux Libertine&quot; style=&quot;font-size: 24px; font-weight: normal;&quot;&gt;(a)&lt;/font&gt;&lt;/h3&gt;" style="text;html=1;strokeColor=none;fillColor=none;align=center;verticalAlign=middle;whiteSpace=wrap;rounded=0;fontSize=18;" parent="1" vertex="1">
          <mxGeometry x="303" y="8886" width="82.25" height="29" as="geometry" />
        </mxCell>
        <mxCell id="50" value="" style="shape=table;startSize=0;container=1;collapsible=0;childLayout=tableLayout;fontSize=24;" parent="1" vertex="1">
          <mxGeometry x="380" y="8591" width="272" height="38" as="geometry" />
        </mxCell>
        <mxCell id="51" value="" style="shape=tableRow;horizontal=0;startSize=0;swimlaneHead=0;swimlaneBody=0;strokeColor=inherit;top=0;left=0;bottom=0;right=0;collapsible=0;dropTarget=0;fillColor=none;points=[[0,0.5],[1,0.5]];portConstraint=eastwest;fontSize=24;" parent="50" vertex="1">
          <mxGeometry width="272" height="38" as="geometry" />
        </mxCell>
        <mxCell id="52" value="&lt;font face=&quot;Linux Libertine&quot; data-font-src=&quot;https://fonts.googleapis.com/css?family=Linux+Libertine&quot; style=&quot;font-size: 18px;&quot;&gt;R&lt;span style=&quot;background-color: rgb(255, 242, 204);&quot;&gt;[0]&lt;/span&gt;&lt;/font&gt;" style="shape=partialRectangle;html=1;whiteSpace=wrap;connectable=0;strokeColor=inherit;overflow=hidden;fillColor=none;top=0;left=0;bottom=0;right=0;pointerEvents=1;fontSize=24;strokeWidth=1;" parent="51" vertex="1">
          <mxGeometry width="60" height="38" as="geometry">
            <mxRectangle width="60" height="38" as="alternateBounds" />
          </mxGeometry>
        </mxCell>
        <mxCell id="53" value="&lt;font data-font-src=&quot;https://fonts.googleapis.com/css?family=Linux+Libertine&quot; style=&quot;font-size: 18px;&quot;&gt;&lt;br&gt;&lt;/font&gt;" style="shape=partialRectangle;html=1;whiteSpace=wrap;connectable=0;strokeColor=inherit;overflow=hidden;fillColor=none;top=0;left=0;bottom=0;right=0;pointerEvents=1;fontSize=24;" parent="51" vertex="1">
          <mxGeometry x="60" width="139" height="38" as="geometry">
            <mxRectangle width="139" height="38" as="alternateBounds" />
          </mxGeometry>
        </mxCell>
        <mxCell id="54" value="" style="shape=partialRectangle;html=1;whiteSpace=wrap;connectable=0;strokeColor=inherit;overflow=hidden;fillColor=none;top=0;left=0;bottom=0;right=0;pointerEvents=1;fontSize=24;" parent="51" vertex="1">
          <mxGeometry x="199" width="73" height="38" as="geometry">
            <mxRectangle width="73" height="38" as="alternateBounds" />
          </mxGeometry>
        </mxCell>
        <mxCell id="67" value="&lt;h3&gt;&lt;font data-font-src=&quot;https://fonts.googleapis.com/css?family=Linux+Libertine&quot; face=&quot;Linux Libertine&quot; style=&quot;font-size: 24px; font-weight: normal;&quot;&gt;(b)&lt;/font&gt;&lt;/h3&gt;" style="text;html=1;strokeColor=none;fillColor=none;align=center;verticalAlign=middle;whiteSpace=wrap;rounded=0;fontSize=18;" parent="1" vertex="1">
          <mxGeometry x="293.88" y="9168" width="100.5" height="29" as="geometry" />
        </mxCell>
        <mxCell id="78" value="&lt;font style=&quot;font-size: 20px;&quot; face=&quot;Linux Libertine&quot;&gt;thread1&lt;/font&gt;" style="text;html=1;strokeColor=none;fillColor=none;align=center;verticalAlign=middle;whiteSpace=wrap;rounded=0;fontSize=24;" parent="1" vertex="1">
          <mxGeometry x="268" y="8595" width="107" height="30" as="geometry" />
        </mxCell>
        <mxCell id="79" value="&lt;font style=&quot;font-size: 20px;&quot; face=&quot;Linux Libertine&quot;&gt;thread2&lt;/font&gt;" style="text;html=1;strokeColor=none;fillColor=none;align=center;verticalAlign=middle;whiteSpace=wrap;rounded=0;fontSize=24;" parent="1" vertex="1">
          <mxGeometry x="270" y="8750" width="107" height="30" as="geometry" />
        </mxCell>
        <mxCell id="90" value="&lt;span style=&quot;color: rgb(0, 0, 0); font-family: &amp;quot;Linux Libertine&amp;quot;; font-size: 18px; font-style: normal; font-variant-ligatures: normal; font-variant-caps: normal; font-weight: 400; letter-spacing: normal; orphans: 2; text-align: center; text-indent: 0px; text-transform: none; widows: 2; word-spacing: 0px; -webkit-text-stroke-width: 0px; background-color: rgb(251, 251, 251); text-decoration-thickness: initial; text-decoration-style: initial; text-decoration-color: initial; float: none; display: inline !important;&quot;&gt;Read&lt;/span&gt;" style="text;whiteSpace=wrap;html=1;" parent="1" vertex="1">
          <mxGeometry x="391" y="8558" width="44" height="38" as="geometry" />
        </mxCell>
        <mxCell id="91" value="&lt;span style=&quot;color: rgb(0, 0, 0); font-family: &amp;quot;Linux Libertine&amp;quot;; font-size: 18px; font-style: normal; font-variant-ligatures: normal; font-variant-caps: normal; font-weight: 400; letter-spacing: normal; orphans: 2; text-align: center; text-indent: 0px; text-transform: none; widows: 2; word-spacing: 0px; -webkit-text-stroke-width: 0px; background-color: rgb(251, 251, 251); text-decoration-thickness: initial; text-decoration-style: initial; text-decoration-color: initial; float: none; display: inline !important;&quot;&gt;Accumulate&lt;/span&gt;" style="text;whiteSpace=wrap;html=1;" parent="1" vertex="1">
          <mxGeometry x="463" y="8558" width="105" height="27" as="geometry" />
        </mxCell>
        <mxCell id="92" value="&lt;span style=&quot;color: rgb(0, 0, 0); font-family: &amp;quot;Linux Libertine&amp;quot;; font-size: 18px; font-style: normal; font-variant-ligatures: normal; font-variant-caps: normal; font-weight: 400; letter-spacing: normal; orphans: 2; text-align: center; text-indent: 0px; text-transform: none; widows: 2; word-spacing: 0px; -webkit-text-stroke-width: 0px; background-color: rgb(251, 251, 251); text-decoration-thickness: initial; text-decoration-style: initial; text-decoration-color: initial; float: none; display: inline !important;&quot;&gt;Write&lt;/span&gt;" style="text;whiteSpace=wrap;html=1;" parent="1" vertex="1">
          <mxGeometry x="590" y="8558" width="51" height="29" as="geometry" />
        </mxCell>
        <mxCell id="93" value="" style="shape=table;startSize=0;container=1;collapsible=0;childLayout=tableLayout;fontSize=24;movable=1;resizable=1;rotatable=1;deletable=1;editable=1;connectable=1;" parent="1" vertex="1">
          <mxGeometry x="381.5" y="8746" width="272" height="38" as="geometry" />
        </mxCell>
        <mxCell id="94" value="" style="shape=tableRow;horizontal=0;startSize=0;swimlaneHead=0;swimlaneBody=0;strokeColor=inherit;top=0;left=0;bottom=0;right=0;collapsible=0;dropTarget=0;fillColor=none;points=[[0,0.5],[1,0.5]];portConstraint=eastwest;fontSize=24;" parent="93" vertex="1">
          <mxGeometry width="272" height="38" as="geometry" />
        </mxCell>
        <mxCell id="95" value="&lt;font face=&quot;Linux Libertine&quot; data-font-src=&quot;https://fonts.googleapis.com/css?family=Linux+Libertine&quot; style=&quot;font-size: 18px;&quot;&gt;R&lt;span style=&quot;background-color: rgb(255, 242, 204);&quot;&gt;[0]&lt;/span&gt;&lt;/font&gt;" style="shape=partialRectangle;html=1;whiteSpace=wrap;connectable=0;strokeColor=inherit;overflow=hidden;fillColor=none;top=0;left=0;bottom=0;right=0;pointerEvents=1;fontSize=24;strokeWidth=1;" parent="94" vertex="1">
          <mxGeometry width="60" height="38" as="geometry">
            <mxRectangle width="60" height="38" as="alternateBounds" />
          </mxGeometry>
        </mxCell>
        <mxCell id="96" value="&lt;font data-font-src=&quot;https://fonts.googleapis.com/css?family=Linux+Libertine&quot; style=&quot;font-size: 18px;&quot;&gt;&lt;br&gt;&lt;/font&gt;" style="shape=partialRectangle;html=1;whiteSpace=wrap;connectable=1;strokeColor=inherit;overflow=hidden;fillColor=none;top=0;left=0;bottom=0;right=0;pointerEvents=1;fontSize=24;movable=1;resizable=1;rotatable=1;deletable=1;editable=1;" parent="94" vertex="1">
          <mxGeometry x="60" width="139" height="38" as="geometry">
            <mxRectangle width="139" height="38" as="alternateBounds" />
          </mxGeometry>
        </mxCell>
        <mxCell id="97" value="" style="shape=partialRectangle;html=1;whiteSpace=wrap;connectable=0;strokeColor=inherit;overflow=hidden;fillColor=none;top=0;left=0;bottom=0;right=0;pointerEvents=1;fontSize=24;" parent="94" vertex="1">
          <mxGeometry x="199" width="73" height="38" as="geometry">
            <mxRectangle width="73" height="38" as="alternateBounds" />
          </mxGeometry>
        </mxCell>
        <mxCell id="98" value="" style="shape=table;startSize=0;container=1;collapsible=0;childLayout=tableLayout;fontSize=24;" parent="1" vertex="1">
          <mxGeometry x="380" y="8636" width="272" height="38" as="geometry" />
        </mxCell>
        <mxCell id="99" value="" style="shape=tableRow;horizontal=0;startSize=0;swimlaneHead=0;swimlaneBody=0;strokeColor=inherit;top=0;left=0;bottom=0;right=0;collapsible=0;dropTarget=0;fillColor=none;points=[[0,0.5],[1,0.5]];portConstraint=eastwest;fontSize=24;" parent="98" vertex="1">
          <mxGeometry width="272" height="38" as="geometry" />
        </mxCell>
        <mxCell id="100" value="" style="shape=partialRectangle;html=1;whiteSpace=wrap;connectable=0;strokeColor=inherit;overflow=hidden;fillColor=none;top=0;left=0;bottom=0;right=0;pointerEvents=1;fontSize=24;strokeWidth=1;" parent="99" vertex="1">
          <mxGeometry width="60" height="38" as="geometry">
            <mxRectangle width="60" height="38" as="alternateBounds" />
          </mxGeometry>
        </mxCell>
        <mxCell id="101" value="&lt;font data-font-src=&quot;https://fonts.googleapis.com/css?family=Linux+Libertine&quot; style=&quot;font-size: 18px;&quot;&gt;&lt;font data-font-src=&quot;https://fonts.googleapis.com/css?family=Linux+Libertine&quot; face=&quot;Linux Libertine&quot;&gt;R&lt;span style=&quot;background-color: rgb(255, 242, 204);&quot;&gt;[0]&lt;/span&gt; += V[1] * 1&amp;nbsp;&lt;/font&gt;&lt;br&gt;&lt;/font&gt;" style="shape=partialRectangle;html=1;whiteSpace=wrap;connectable=0;strokeColor=inherit;overflow=hidden;fillColor=none;top=0;left=0;bottom=0;right=0;pointerEvents=1;fontSize=24;" parent="99" vertex="1">
          <mxGeometry x="60" width="139" height="38" as="geometry">
            <mxRectangle width="139" height="38" as="alternateBounds" />
          </mxGeometry>
        </mxCell>
        <mxCell id="102" value="" style="shape=partialRectangle;html=1;whiteSpace=wrap;connectable=0;strokeColor=inherit;overflow=hidden;fillColor=none;top=0;left=0;bottom=0;right=0;pointerEvents=1;fontSize=24;" parent="99" vertex="1">
          <mxGeometry x="199" width="73" height="38" as="geometry">
            <mxRectangle width="73" height="38" as="alternateBounds" />
          </mxGeometry>
        </mxCell>
        <mxCell id="103" value="" style="shape=table;startSize=0;container=1;collapsible=0;childLayout=tableLayout;fontSize=24;" parent="1" vertex="1">
          <mxGeometry x="382" y="8792" width="272" height="38" as="geometry" />
        </mxCell>
        <mxCell id="104" value="" style="shape=tableRow;horizontal=0;startSize=0;swimlaneHead=0;swimlaneBody=0;strokeColor=inherit;top=0;left=0;bottom=0;right=0;collapsible=0;dropTarget=0;fillColor=none;points=[[0,0.5],[1,0.5]];portConstraint=eastwest;fontSize=24;" parent="103" vertex="1">
          <mxGeometry width="272" height="38" as="geometry" />
        </mxCell>
        <mxCell id="105" value="" style="shape=partialRectangle;html=1;whiteSpace=wrap;connectable=0;strokeColor=inherit;overflow=hidden;fillColor=none;top=0;left=0;bottom=0;right=0;pointerEvents=1;fontSize=24;strokeWidth=1;" parent="104" vertex="1">
          <mxGeometry width="60" height="38" as="geometry">
            <mxRectangle width="60" height="38" as="alternateBounds" />
          </mxGeometry>
        </mxCell>
        <mxCell id="106" value="&lt;font data-font-src=&quot;https://fonts.googleapis.com/css?family=Linux+Libertine&quot; style=&quot;font-size: 18px;&quot;&gt;&lt;span style=&quot;font-family: &amp;quot;Linux Libertine&amp;quot;;&quot;&gt;R&lt;/span&gt;&lt;span style=&quot;border-color: var(--border-color); font-family: &amp;quot;Linux Libertine&amp;quot;; background-color: rgb(255, 242, 204);&quot;&gt;[0]&lt;/span&gt;&lt;span style=&quot;font-family: &amp;quot;Linux Libertine&amp;quot;;&quot;&gt;&amp;nbsp;+= V&lt;/span&gt;&lt;span style=&quot;border-color: var(--border-color); font-family: &amp;quot;Linux Libertine&amp;quot;;&quot;&gt;[2]&lt;/span&gt;&lt;span style=&quot;font-family: &amp;quot;Linux Libertine&amp;quot;;&quot;&gt;&amp;nbsp;*&amp;nbsp;&lt;/span&gt;&lt;span style=&quot;border-color: var(--border-color); font-family: &amp;quot;Linux Libertine&amp;quot;;&quot;&gt;3&lt;/span&gt;&lt;span style=&quot;font-family: &amp;quot;Linux Libertine&amp;quot;;&quot;&gt;&amp;nbsp;&lt;/span&gt;&lt;br&gt;&lt;/font&gt;" style="shape=partialRectangle;html=1;whiteSpace=wrap;connectable=0;strokeColor=inherit;overflow=hidden;fillColor=none;top=0;left=0;bottom=0;right=0;pointerEvents=1;fontSize=24;" parent="104" vertex="1">
          <mxGeometry x="60" width="139" height="38" as="geometry">
            <mxRectangle width="139" height="38" as="alternateBounds" />
          </mxGeometry>
        </mxCell>
        <mxCell id="107" value="" style="shape=partialRectangle;html=1;whiteSpace=wrap;connectable=0;strokeColor=inherit;overflow=hidden;fillColor=none;top=0;left=0;bottom=0;right=0;pointerEvents=1;fontSize=24;" parent="104" vertex="1">
          <mxGeometry x="199" width="73" height="38" as="geometry">
            <mxRectangle width="73" height="38" as="alternateBounds" />
          </mxGeometry>
        </mxCell>
        <mxCell id="108" value="" style="shape=table;startSize=0;container=1;collapsible=0;childLayout=tableLayout;fontSize=24;" parent="1" vertex="1">
          <mxGeometry x="382" y="8839" width="272" height="38" as="geometry" />
        </mxCell>
        <mxCell id="109" value="" style="shape=tableRow;horizontal=0;startSize=0;swimlaneHead=0;swimlaneBody=0;strokeColor=inherit;top=0;left=0;bottom=0;right=0;collapsible=0;dropTarget=0;fillColor=none;points=[[0,0.5],[1,0.5]];portConstraint=eastwest;fontSize=24;" parent="108" vertex="1">
          <mxGeometry width="272" height="38" as="geometry" />
        </mxCell>
        <mxCell id="110" value="" style="shape=partialRectangle;html=1;whiteSpace=wrap;connectable=0;strokeColor=inherit;overflow=hidden;fillColor=none;top=0;left=0;bottom=0;right=0;pointerEvents=1;fontSize=24;strokeWidth=1;" parent="109" vertex="1">
          <mxGeometry width="60" height="38" as="geometry">
            <mxRectangle width="60" height="38" as="alternateBounds" />
          </mxGeometry>
        </mxCell>
        <mxCell id="111" value="&lt;font data-font-src=&quot;https://fonts.googleapis.com/css?family=Linux+Libertine&quot; style=&quot;font-size: 18px;&quot;&gt;&lt;br&gt;&lt;/font&gt;" style="shape=partialRectangle;html=1;whiteSpace=wrap;connectable=0;strokeColor=inherit;overflow=hidden;fillColor=none;top=0;left=0;bottom=0;right=0;pointerEvents=1;fontSize=24;" parent="109" vertex="1">
          <mxGeometry x="60" width="139" height="38" as="geometry">
            <mxRectangle width="139" height="38" as="alternateBounds" />
          </mxGeometry>
        </mxCell>
        <mxCell id="112" value="&lt;span style=&quot;font-size: 18px;&quot;&gt;&lt;font data-font-src=&quot;https://fonts.googleapis.com/css?family=Linux+Libertine&quot; face=&quot;Linux Libertine&quot;&gt;R&lt;span style=&quot;background-color: rgb(255, 242, 204);&quot;&gt;[0]&lt;/span&gt;&lt;/font&gt;&lt;/span&gt;" style="shape=partialRectangle;html=1;whiteSpace=wrap;connectable=0;strokeColor=inherit;overflow=hidden;fillColor=none;top=0;left=0;bottom=0;right=0;pointerEvents=1;fontSize=24;" parent="109" vertex="1">
          <mxGeometry x="199" width="73" height="38" as="geometry">
            <mxRectangle width="73" height="38" as="alternateBounds" />
          </mxGeometry>
        </mxCell>
        <mxCell id="113" value="" style="shape=table;startSize=0;container=1;collapsible=0;childLayout=tableLayout;fontSize=24;" parent="1" vertex="1">
          <mxGeometry x="380" y="8685" width="272" height="38" as="geometry" />
        </mxCell>
        <mxCell id="114" value="" style="shape=tableRow;horizontal=0;startSize=0;swimlaneHead=0;swimlaneBody=0;strokeColor=inherit;top=0;left=0;bottom=0;right=0;collapsible=0;dropTarget=0;fillColor=none;points=[[0,0.5],[1,0.5]];portConstraint=eastwest;fontSize=24;" parent="113" vertex="1">
          <mxGeometry width="272" height="38" as="geometry" />
        </mxCell>
        <mxCell id="115" value="" style="shape=partialRectangle;html=1;whiteSpace=wrap;connectable=0;strokeColor=inherit;overflow=hidden;fillColor=none;top=0;left=0;bottom=0;right=0;pointerEvents=1;fontSize=24;strokeWidth=1;" parent="114" vertex="1">
          <mxGeometry width="60" height="38" as="geometry">
            <mxRectangle width="60" height="38" as="alternateBounds" />
          </mxGeometry>
        </mxCell>
        <mxCell id="116" value="&lt;font data-font-src=&quot;https://fonts.googleapis.com/css?family=Linux+Libertine&quot; style=&quot;font-size: 18px;&quot;&gt;&lt;br&gt;&lt;/font&gt;" style="shape=partialRectangle;html=1;whiteSpace=wrap;connectable=0;strokeColor=inherit;overflow=hidden;fillColor=none;top=0;left=0;bottom=0;right=0;pointerEvents=1;fontSize=24;" parent="114" vertex="1">
          <mxGeometry x="60" width="139" height="38" as="geometry">
            <mxRectangle width="139" height="38" as="alternateBounds" />
          </mxGeometry>
        </mxCell>
        <mxCell id="117" value="&lt;span style=&quot;font-size: 18px;&quot;&gt;&lt;font data-font-src=&quot;https://fonts.googleapis.com/css?family=Linux+Libertine&quot; face=&quot;Linux Libertine&quot;&gt;R&lt;span style=&quot;background-color: rgb(255, 242, 204);&quot;&gt;[0]&lt;/span&gt;&lt;/font&gt;&lt;/span&gt;" style="shape=partialRectangle;html=1;whiteSpace=wrap;connectable=0;strokeColor=inherit;overflow=hidden;fillColor=none;top=0;left=0;bottom=0;right=0;pointerEvents=1;fontSize=24;" parent="114" vertex="1">
          <mxGeometry x="199" width="73" height="38" as="geometry">
            <mxRectangle width="73" height="38" as="alternateBounds" />
          </mxGeometry>
        </mxCell>
        <mxCell id="123" value="&lt;font style=&quot;font-size: 20px;&quot; face=&quot;Linux Libertine&quot;&gt;thread1&lt;/font&gt;" style="text;html=1;strokeColor=none;fillColor=none;align=center;verticalAlign=middle;whiteSpace=wrap;rounded=0;fontSize=24;" parent="1" vertex="1">
          <mxGeometry x="267" y="8960" width="107" height="30" as="geometry" />
        </mxCell>
        <mxCell id="124" value="&lt;font style=&quot;font-size: 20px;&quot; face=&quot;Linux Libertine&quot;&gt;thread2&lt;/font&gt;" style="text;html=1;strokeColor=none;fillColor=none;align=center;verticalAlign=middle;whiteSpace=wrap;rounded=0;fontSize=24;" parent="1" vertex="1">
          <mxGeometry x="270" y="9076" width="107" height="30" as="geometry" />
        </mxCell>
        <mxCell id="125" value="&lt;span style=&quot;color: rgb(0, 0, 0); font-family: &amp;quot;Linux Libertine&amp;quot;; font-size: 18px; font-style: normal; font-variant-ligatures: normal; font-variant-caps: normal; font-weight: 400; letter-spacing: normal; orphans: 2; text-align: center; text-indent: 0px; text-transform: none; widows: 2; word-spacing: 0px; -webkit-text-stroke-width: 0px; background-color: rgb(251, 251, 251); text-decoration-thickness: initial; text-decoration-style: initial; text-decoration-color: initial; float: none; display: inline !important;&quot;&gt;Read&lt;/span&gt;" style="text;whiteSpace=wrap;html=1;" parent="1" vertex="1">
          <mxGeometry x="390" y="8923" width="44" height="38" as="geometry" />
        </mxCell>
        <mxCell id="126" value="&lt;span style=&quot;color: rgb(0, 0, 0); font-family: &amp;quot;Linux Libertine&amp;quot;; font-size: 18px; font-style: normal; font-variant-ligatures: normal; font-variant-caps: normal; font-weight: 400; letter-spacing: normal; orphans: 2; text-align: center; text-indent: 0px; text-transform: none; widows: 2; word-spacing: 0px; -webkit-text-stroke-width: 0px; background-color: rgb(251, 251, 251); text-decoration-thickness: initial; text-decoration-style: initial; text-decoration-color: initial; float: none; display: inline !important;&quot;&gt;Accumulate&lt;/span&gt;" style="text;whiteSpace=wrap;html=1;" parent="1" vertex="1">
          <mxGeometry x="462" y="8923" width="105" height="27" as="geometry" />
        </mxCell>
        <mxCell id="127" value="&lt;span style=&quot;color: rgb(0, 0, 0); font-family: &amp;quot;Linux Libertine&amp;quot;; font-size: 18px; font-style: normal; font-variant-ligatures: normal; font-variant-caps: normal; font-weight: 400; letter-spacing: normal; orphans: 2; text-align: center; text-indent: 0px; text-transform: none; widows: 2; word-spacing: 0px; -webkit-text-stroke-width: 0px; background-color: rgb(251, 251, 251); text-decoration-thickness: initial; text-decoration-style: initial; text-decoration-color: initial; float: none; display: inline !important;&quot;&gt;Write&lt;/span&gt;" style="text;whiteSpace=wrap;html=1;" parent="1" vertex="1">
          <mxGeometry x="593.71" y="8923" width="51" height="29" as="geometry" />
        </mxCell>
        <mxCell id="133" value="" style="shape=table;startSize=0;container=1;collapsible=0;childLayout=tableLayout;fontSize=24;" parent="1" vertex="1">
          <mxGeometry x="382" y="8958" width="272" height="38" as="geometry" />
        </mxCell>
        <mxCell id="134" value="" style="shape=tableRow;horizontal=0;startSize=0;swimlaneHead=0;swimlaneBody=0;strokeColor=inherit;top=0;left=0;bottom=0;right=0;collapsible=0;dropTarget=0;fillColor=none;points=[[0,0.5],[1,0.5]];portConstraint=eastwest;fontSize=24;" parent="133" vertex="1">
          <mxGeometry width="272" height="38" as="geometry" />
        </mxCell>
        <mxCell id="135" value="" style="shape=partialRectangle;html=1;whiteSpace=wrap;connectable=0;strokeColor=inherit;overflow=hidden;fillColor=none;top=0;left=0;bottom=0;right=0;pointerEvents=1;fontSize=24;strokeWidth=1;" parent="134" vertex="1">
          <mxGeometry width="60" height="38" as="geometry">
            <mxRectangle width="60" height="38" as="alternateBounds" />
          </mxGeometry>
        </mxCell>
        <mxCell id="136" value="&lt;font data-font-src=&quot;https://fonts.googleapis.com/css?family=Linux+Libertine&quot; style=&quot;font-size: 18px;&quot;&gt;&lt;font data-font-src=&quot;https://fonts.googleapis.com/css?family=Linux+Libertine&quot; face=&quot;Linux Libertine&quot;&gt;R&lt;span style=&quot;background-color: rgb(255, 242, 204);&quot;&gt;[0]&lt;/span&gt; += V[1] * 1&amp;nbsp;&lt;/font&gt;&lt;br&gt;&lt;/font&gt;" style="shape=partialRectangle;html=1;whiteSpace=wrap;connectable=0;strokeColor=inherit;overflow=hidden;fillColor=none;top=0;left=0;bottom=0;right=0;pointerEvents=1;fontSize=24;" parent="134" vertex="1">
          <mxGeometry x="60" width="139" height="38" as="geometry">
            <mxRectangle width="139" height="38" as="alternateBounds" />
          </mxGeometry>
        </mxCell>
        <mxCell id="137" value="" style="shape=partialRectangle;html=1;whiteSpace=wrap;connectable=0;strokeColor=inherit;overflow=hidden;fillColor=none;top=0;left=0;bottom=0;right=0;pointerEvents=1;fontSize=24;" parent="134" vertex="1">
          <mxGeometry x="199" width="73" height="38" as="geometry">
            <mxRectangle width="73" height="38" as="alternateBounds" />
          </mxGeometry>
        </mxCell>
        <mxCell id="138" value="" style="shape=table;startSize=0;container=1;collapsible=0;childLayout=tableLayout;fontSize=24;" parent="1" vertex="1">
          <mxGeometry x="382" y="9076" width="272" height="38" as="geometry" />
        </mxCell>
        <mxCell id="139" value="" style="shape=tableRow;horizontal=0;startSize=0;swimlaneHead=0;swimlaneBody=0;strokeColor=inherit;top=0;left=0;bottom=0;right=0;collapsible=0;dropTarget=0;fillColor=none;points=[[0,0.5],[1,0.5]];portConstraint=eastwest;fontSize=24;" parent="138" vertex="1">
          <mxGeometry width="272" height="38" as="geometry" />
        </mxCell>
        <mxCell id="140" value="&lt;span style=&quot;font-family: &amp;quot;Linux Libertine&amp;quot;; font-size: 18px;&quot;&gt;R&lt;/span&gt;&lt;span style=&quot;border-color: var(--border-color); font-family: &amp;quot;Linux Libertine&amp;quot;; font-size: 18px; background-color: rgb(255, 242, 204);&quot;&gt;[0]&lt;/span&gt;" style="shape=partialRectangle;html=1;whiteSpace=wrap;connectable=0;strokeColor=inherit;overflow=hidden;fillColor=none;top=0;left=0;bottom=0;right=0;pointerEvents=1;fontSize=24;strokeWidth=1;" parent="139" vertex="1">
          <mxGeometry width="60" height="38" as="geometry">
            <mxRectangle width="60" height="38" as="alternateBounds" />
          </mxGeometry>
        </mxCell>
        <mxCell id="141" value="&lt;font data-font-src=&quot;https://fonts.googleapis.com/css?family=Linux+Libertine&quot; style=&quot;font-size: 18px;&quot;&gt;&lt;br&gt;&lt;/font&gt;" style="shape=partialRectangle;html=1;whiteSpace=wrap;connectable=0;strokeColor=inherit;overflow=hidden;fillColor=none;top=0;left=0;bottom=0;right=0;pointerEvents=1;fontSize=24;" parent="139" vertex="1">
          <mxGeometry x="60" width="139" height="38" as="geometry">
            <mxRectangle width="139" height="38" as="alternateBounds" />
          </mxGeometry>
        </mxCell>
        <mxCell id="142" value="" style="shape=partialRectangle;html=1;whiteSpace=wrap;connectable=0;strokeColor=inherit;overflow=hidden;fillColor=none;top=0;left=0;bottom=0;right=0;pointerEvents=1;fontSize=24;" parent="139" vertex="1">
          <mxGeometry x="199" width="73" height="38" as="geometry">
            <mxRectangle width="73" height="38" as="alternateBounds" />
          </mxGeometry>
        </mxCell>
        <mxCell id="143" value="" style="shape=table;startSize=0;container=1;collapsible=0;childLayout=tableLayout;fontSize=24;" parent="1" vertex="1">
          <mxGeometry x="382" y="9123" width="272" height="38" as="geometry" />
        </mxCell>
        <mxCell id="144" value="" style="shape=tableRow;horizontal=0;startSize=0;swimlaneHead=0;swimlaneBody=0;strokeColor=inherit;top=0;left=0;bottom=0;right=0;collapsible=0;dropTarget=0;fillColor=none;points=[[0,0.5],[1,0.5]];portConstraint=eastwest;fontSize=24;" parent="143" vertex="1">
          <mxGeometry width="272" height="38" as="geometry" />
        </mxCell>
        <mxCell id="145" value="" style="shape=partialRectangle;html=1;whiteSpace=wrap;connectable=0;strokeColor=inherit;overflow=hidden;fillColor=none;top=0;left=0;bottom=0;right=0;pointerEvents=1;fontSize=24;strokeWidth=1;" parent="144" vertex="1">
          <mxGeometry width="60" height="38" as="geometry">
            <mxRectangle width="60" height="38" as="alternateBounds" />
          </mxGeometry>
        </mxCell>
        <mxCell id="146" value="&lt;font data-font-src=&quot;https://fonts.googleapis.com/css?family=Linux+Libertine&quot; style=&quot;font-size: 18px;&quot;&gt;&lt;span style=&quot;border-color: var(--border-color); font-family: &amp;quot;Linux Libertine&amp;quot;;&quot;&gt;R&lt;/span&gt;&lt;span style=&quot;border-color: var(--border-color); font-family: &amp;quot;Linux Libertine&amp;quot;; background-color: rgb(255, 242, 204);&quot;&gt;[0]&lt;/span&gt;&lt;span style=&quot;border-color: var(--border-color); font-family: &amp;quot;Linux Libertine&amp;quot;;&quot;&gt;&amp;nbsp;+= V&lt;/span&gt;&lt;span style=&quot;border-color: var(--border-color); font-family: &amp;quot;Linux Libertine&amp;quot;;&quot;&gt;[3]&lt;/span&gt;&lt;span style=&quot;border-color: var(--border-color); font-family: &amp;quot;Linux Libertine&amp;quot;;&quot;&gt;&amp;nbsp;*&amp;nbsp;&lt;/span&gt;&lt;span style=&quot;border-color: var(--border-color); font-family: &amp;quot;Linux Libertine&amp;quot;;&quot;&gt;10&lt;/span&gt;&lt;span style=&quot;border-color: var(--border-color); font-family: &amp;quot;Linux Libertine&amp;quot;;&quot;&gt;&amp;nbsp;&lt;/span&gt;&lt;br&gt;&lt;/font&gt;" style="shape=partialRectangle;html=1;whiteSpace=wrap;connectable=0;strokeColor=inherit;overflow=hidden;fillColor=none;top=0;left=0;bottom=0;right=0;pointerEvents=1;fontSize=24;" parent="144" vertex="1">
          <mxGeometry x="60" width="139" height="38" as="geometry">
            <mxRectangle width="139" height="38" as="alternateBounds" />
          </mxGeometry>
        </mxCell>
        <mxCell id="147" value="" style="shape=partialRectangle;html=1;whiteSpace=wrap;connectable=0;strokeColor=inherit;overflow=hidden;fillColor=none;top=0;left=0;bottom=0;right=0;pointerEvents=1;fontSize=24;" parent="144" vertex="1">
          <mxGeometry x="199" width="73" height="38" as="geometry">
            <mxRectangle width="73" height="38" as="alternateBounds" />
          </mxGeometry>
        </mxCell>
        <mxCell id="148" value="" style="shape=table;startSize=0;container=1;collapsible=0;childLayout=tableLayout;fontSize=24;" parent="1" vertex="1">
          <mxGeometry x="382" y="9007" width="272" height="38" as="geometry" />
        </mxCell>
        <mxCell id="149" value="" style="shape=tableRow;horizontal=0;startSize=0;swimlaneHead=0;swimlaneBody=0;strokeColor=inherit;top=0;left=0;bottom=0;right=0;collapsible=0;dropTarget=0;fillColor=none;points=[[0,0.5],[1,0.5]];portConstraint=eastwest;fontSize=24;" parent="148" vertex="1">
          <mxGeometry width="272" height="38" as="geometry" />
        </mxCell>
        <mxCell id="150" value="" style="shape=partialRectangle;html=1;whiteSpace=wrap;connectable=0;strokeColor=inherit;overflow=hidden;fillColor=none;top=0;left=0;bottom=0;right=0;pointerEvents=1;fontSize=24;strokeWidth=1;" parent="149" vertex="1">
          <mxGeometry width="60" height="38" as="geometry">
            <mxRectangle width="60" height="38" as="alternateBounds" />
          </mxGeometry>
        </mxCell>
        <mxCell id="151" value="&lt;font data-font-src=&quot;https://fonts.googleapis.com/css?family=Linux+Libertine&quot; style=&quot;font-size: 18px;&quot;&gt;&lt;br&gt;&lt;/font&gt;" style="shape=partialRectangle;html=1;whiteSpace=wrap;connectable=0;strokeColor=inherit;overflow=hidden;fillColor=none;top=0;left=0;bottom=0;right=0;pointerEvents=1;fontSize=24;" parent="149" vertex="1">
          <mxGeometry x="60" width="139" height="38" as="geometry">
            <mxRectangle width="139" height="38" as="alternateBounds" />
          </mxGeometry>
        </mxCell>
        <mxCell id="152" value="&lt;span style=&quot;font-size: 18px;&quot;&gt;&lt;font data-font-src=&quot;https://fonts.googleapis.com/css?family=Linux+Libertine&quot; face=&quot;Linux Libertine&quot;&gt;R&lt;span style=&quot;background-color: rgb(255, 242, 204);&quot;&gt;[0]&lt;/span&gt;&lt;/font&gt;&lt;/span&gt;" style="shape=partialRectangle;html=1;whiteSpace=wrap;connectable=0;strokeColor=inherit;overflow=hidden;fillColor=none;top=0;left=0;bottom=0;right=0;pointerEvents=1;fontSize=24;" parent="149" vertex="1">
          <mxGeometry x="199" width="73" height="38" as="geometry">
            <mxRectangle width="73" height="38" as="alternateBounds" />
          </mxGeometry>
        </mxCell>
        <mxCell id="153" value="&lt;font style=&quot;font-size: 20px;&quot; face=&quot;Linux Libertine&quot;&gt;1&lt;/font&gt;" style="text;html=1;strokeColor=none;fillColor=none;align=center;verticalAlign=middle;whiteSpace=wrap;rounded=0;fontSize=24;" parent="1" vertex="1">
          <mxGeometry x="659" y="8595" width="37" height="30" as="geometry" />
        </mxCell>
        <mxCell id="154" value="&lt;font style=&quot;font-size: 20px;&quot; face=&quot;Linux Libertine&quot;&gt;2&lt;/font&gt;" style="text;html=1;strokeColor=none;fillColor=none;align=center;verticalAlign=middle;whiteSpace=wrap;rounded=0;fontSize=24;" parent="1" vertex="1">
          <mxGeometry x="659" y="8640" width="37" height="30" as="geometry" />
        </mxCell>
        <mxCell id="155" value="&lt;font style=&quot;font-size: 20px;&quot; face=&quot;Linux Libertine&quot;&gt;3&lt;/font&gt;" style="text;html=1;strokeColor=none;fillColor=none;align=center;verticalAlign=middle;whiteSpace=wrap;rounded=0;fontSize=24;" parent="1" vertex="1">
          <mxGeometry x="659" y="8689" width="37" height="30" as="geometry" />
        </mxCell>
        <mxCell id="156" value="&lt;font style=&quot;font-size: 20px;&quot; face=&quot;Linux Libertine&quot;&gt;1&lt;/font&gt;" style="text;html=1;strokeColor=none;fillColor=none;align=center;verticalAlign=middle;whiteSpace=wrap;rounded=0;fontSize=24;" parent="1" vertex="1">
          <mxGeometry x="660" y="8750" width="37" height="30" as="geometry" />
        </mxCell>
        <mxCell id="157" value="&lt;font style=&quot;font-size: 20px;&quot; face=&quot;Linux Libertine&quot;&gt;2&lt;/font&gt;" style="text;html=1;strokeColor=none;fillColor=none;align=center;verticalAlign=middle;whiteSpace=wrap;rounded=0;fontSize=24;" parent="1" vertex="1">
          <mxGeometry x="660" y="8795" width="37" height="30" as="geometry" />
        </mxCell>
        <mxCell id="158" value="&lt;font style=&quot;font-size: 20px;&quot; face=&quot;Linux Libertine&quot;&gt;3&lt;/font&gt;" style="text;html=1;strokeColor=none;fillColor=none;align=center;verticalAlign=middle;whiteSpace=wrap;rounded=0;fontSize=24;" parent="1" vertex="1">
          <mxGeometry x="660" y="8844" width="37" height="30" as="geometry" />
        </mxCell>
        <mxCell id="159" value="&lt;font style=&quot;font-size: 20px;&quot; face=&quot;Linux Libertine&quot;&gt;1&lt;/font&gt;" style="text;html=1;strokeColor=none;fillColor=none;align=center;verticalAlign=middle;whiteSpace=wrap;rounded=0;fontSize=24;" parent="1" vertex="1">
          <mxGeometry x="661" y="8964" width="37" height="30" as="geometry" />
        </mxCell>
        <mxCell id="160" value="&lt;font style=&quot;font-size: 20px;&quot; face=&quot;Linux Libertine&quot;&gt;2&lt;/font&gt;" style="text;html=1;strokeColor=none;fillColor=none;align=center;verticalAlign=middle;whiteSpace=wrap;rounded=0;fontSize=24;" parent="1" vertex="1">
          <mxGeometry x="661" y="9009" width="37" height="30" as="geometry" />
        </mxCell>
        <mxCell id="162" value="&lt;font style=&quot;font-size: 20px;&quot; face=&quot;Linux Libertine&quot;&gt;1&lt;/font&gt;" style="text;html=1;strokeColor=none;fillColor=none;align=center;verticalAlign=middle;whiteSpace=wrap;rounded=0;fontSize=24;" parent="1" vertex="1">
          <mxGeometry x="661" y="9081" width="37" height="30" as="geometry" />
        </mxCell>
        <mxCell id="163" value="&lt;font style=&quot;font-size: 20px;&quot; face=&quot;Linux Libertine&quot;&gt;2&lt;/font&gt;" style="text;html=1;strokeColor=none;fillColor=none;align=center;verticalAlign=middle;whiteSpace=wrap;rounded=0;fontSize=24;" parent="1" vertex="1">
          <mxGeometry x="661" y="9126" width="37" height="30" as="geometry" />
        </mxCell>
        <mxCell id="164" value="&lt;h3&gt;&lt;font data-font-src=&quot;https://fonts.googleapis.com/css?family=Linux+Libertine&quot; face=&quot;Linux Libertine&quot; style=&quot;font-weight: normal; font-size: 20px;&quot;&gt;COO&amp;nbsp;&lt;/font&gt;&lt;/h3&gt;" style="text;html=1;strokeColor=none;fillColor=none;align=center;verticalAlign=middle;whiteSpace=wrap;rounded=0;fontSize=18;" parent="1" vertex="1">
          <mxGeometry x="120.75" y="8941" width="92.5" height="29" as="geometry" />
        </mxCell>
        <mxCell id="165" value="&lt;font face=&quot;Linux Libertine&quot;&gt;src&lt;/font&gt;" style="text;html=1;strokeColor=none;fillColor=none;align=center;verticalAlign=middle;whiteSpace=wrap;rounded=0;fontSize=24;" parent="1" vertex="1">
          <mxGeometry x="10" y="9033" width="60" height="30" as="geometry" />
        </mxCell>
        <mxCell id="166" value="&lt;font data-font-src=&quot;https://fonts.googleapis.com/css?family=Linux+Libertine&quot; face=&quot;Linux Libertine&quot;&gt;dst&lt;/font&gt;" style="text;html=1;strokeColor=none;fillColor=none;align=center;verticalAlign=middle;whiteSpace=wrap;rounded=0;fontSize=24;" parent="1" vertex="1">
          <mxGeometry x="10" y="8976" width="60" height="30" as="geometry" />
        </mxCell>
        <mxCell id="167" value="&lt;font data-font-src=&quot;https://fonts.googleapis.com/css?family=Linux+Libertine&quot; face=&quot;Linux Libertine&quot;&gt;values&lt;/font&gt;" style="text;html=1;strokeColor=none;fillColor=none;align=center;verticalAlign=middle;whiteSpace=wrap;rounded=0;fontSize=24;" parent="1" vertex="1">
          <mxGeometry x="3" y="9091" width="74" height="30" as="geometry" />
        </mxCell>
        <mxCell id="168" value="" style="shape=table;startSize=0;container=1;collapsible=0;childLayout=tableLayout;fontSize=24;strokeWidth=0.5;" parent="1" vertex="1">
          <mxGeometry x="85" y="8975" width="160" height="32" as="geometry" />
        </mxCell>
        <mxCell id="169" value="" style="shape=tableRow;horizontal=0;startSize=0;swimlaneHead=0;swimlaneBody=0;strokeColor=inherit;top=0;left=0;bottom=0;right=0;collapsible=0;dropTarget=0;fillColor=none;points=[[0,0.5],[1,0.5]];portConstraint=eastwest;fontSize=24;" parent="168" vertex="1">
          <mxGeometry width="160" height="32" as="geometry" />
        </mxCell>
        <mxCell id="170" value="&lt;font data-font-src=&quot;https://fonts.googleapis.com/css?family=Linux+Libertine&quot; style=&quot;font-size: 18px;&quot;&gt;0&lt;/font&gt;" style="shape=partialRectangle;html=1;whiteSpace=wrap;connectable=0;strokeColor=#d6b656;overflow=hidden;fillColor=#fff2cc;top=0;left=0;bottom=0;right=0;pointerEvents=1;fontSize=24;strokeWidth=1;" parent="169" vertex="1">
          <mxGeometry width="54" height="32" as="geometry">
            <mxRectangle width="54" height="32" as="alternateBounds" />
          </mxGeometry>
        </mxCell>
        <mxCell id="171" value="&lt;font data-font-src=&quot;https://fonts.googleapis.com/css?family=Linux+Libertine&quot; style=&quot;font-size: 18px;&quot;&gt;0&lt;/font&gt;" style="shape=partialRectangle;html=1;whiteSpace=wrap;connectable=0;strokeColor=#d79b00;overflow=hidden;fillColor=none;top=0;left=0;bottom=0;right=0;pointerEvents=1;fontSize=24;strokeWidth=0;" parent="169" vertex="1">
          <mxGeometry x="54" width="52" height="32" as="geometry">
            <mxRectangle width="52" height="32" as="alternateBounds" />
          </mxGeometry>
        </mxCell>
        <mxCell id="172" value="&lt;font style=&quot;font-size: 18px;&quot; data-font-src=&quot;https://fonts.googleapis.com/css?family=Linux+Libertine&quot;&gt;0&lt;/font&gt;" style="shape=partialRectangle;html=1;whiteSpace=wrap;connectable=0;strokeColor=#d79b00;overflow=hidden;fillColor=#FFF2CC;top=0;left=0;bottom=0;right=0;pointerEvents=1;fontSize=24;strokeWidth=1;fillStyle=auto;" parent="169" vertex="1">
          <mxGeometry x="106" width="54" height="32" as="geometry">
            <mxRectangle width="54" height="32" as="alternateBounds" />
          </mxGeometry>
        </mxCell>
        <mxCell id="173" value="" style="shape=table;startSize=0;container=1;collapsible=0;childLayout=tableLayout;fontSize=24;strokeWidth=0.5;fillColor=default;" parent="1" vertex="1">
          <mxGeometry x="85" y="9033" width="160" height="32" as="geometry" />
        </mxCell>
        <mxCell id="174" value="" style="shape=tableRow;horizontal=0;startSize=0;swimlaneHead=0;swimlaneBody=0;strokeColor=inherit;top=0;left=0;bottom=0;right=0;collapsible=0;dropTarget=0;fillColor=none;points=[[0,0.5],[1,0.5]];portConstraint=eastwest;fontSize=24;" parent="173" vertex="1">
          <mxGeometry width="160" height="32" as="geometry" />
        </mxCell>
        <mxCell id="175" value="&lt;font data-font-src=&quot;https://fonts.googleapis.com/css?family=Linux+Libertine&quot; style=&quot;font-size: 18px;&quot;&gt;1&lt;/font&gt;" style="shape=partialRectangle;html=1;whiteSpace=wrap;connectable=0;strokeColor=#82b366;overflow=hidden;fillColor=none;top=0;left=0;bottom=0;right=0;pointerEvents=1;fontSize=24;" parent="174" vertex="1">
          <mxGeometry width="54" height="32" as="geometry">
            <mxRectangle width="54" height="32" as="alternateBounds" />
          </mxGeometry>
        </mxCell>
        <mxCell id="176" value="&lt;font data-font-src=&quot;https://fonts.googleapis.com/css?family=Linux+Libertine&quot; style=&quot;font-size: 18px;&quot;&gt;2&lt;/font&gt;" style="shape=partialRectangle;html=1;whiteSpace=wrap;connectable=0;strokeColor=inherit;overflow=hidden;fillColor=none;top=0;left=0;bottom=0;right=0;pointerEvents=1;fontSize=24;" parent="174" vertex="1">
          <mxGeometry x="54" width="52" height="32" as="geometry">
            <mxRectangle width="52" height="32" as="alternateBounds" />
          </mxGeometry>
        </mxCell>
        <mxCell id="177" value="&lt;font style=&quot;font-size: 18px;&quot; data-font-src=&quot;https://fonts.googleapis.com/css?family=Linux+Libertine&quot;&gt;3&lt;/font&gt;" style="shape=partialRectangle;html=1;whiteSpace=wrap;connectable=0;strokeColor=#82b366;overflow=hidden;fillColor=none;top=0;left=0;bottom=0;right=0;pointerEvents=1;fontSize=24;" parent="174" vertex="1">
          <mxGeometry x="106" width="54" height="32" as="geometry">
            <mxRectangle width="54" height="32" as="alternateBounds" />
          </mxGeometry>
        </mxCell>
        <mxCell id="178" value="" style="shape=table;startSize=0;container=1;collapsible=0;childLayout=tableLayout;fontSize=24;fillColor=none;strokeWidth=0.5;" parent="1" vertex="1">
          <mxGeometry x="85" y="9092.5" width="160" height="32" as="geometry" />
        </mxCell>
        <mxCell id="179" value="" style="shape=tableRow;horizontal=0;startSize=0;swimlaneHead=0;swimlaneBody=0;strokeColor=inherit;top=0;left=0;bottom=0;right=0;collapsible=0;dropTarget=0;fillColor=none;points=[[0,0.5],[1,0.5]];portConstraint=eastwest;fontSize=24;" parent="178" vertex="1">
          <mxGeometry width="160" height="32" as="geometry" />
        </mxCell>
        <mxCell id="180" value="&lt;font data-font-src=&quot;https://fonts.googleapis.com/css?family=Linux+Libertine&quot; style=&quot;font-size: 18px;&quot;&gt;1&lt;/font&gt;" style="shape=partialRectangle;html=1;whiteSpace=wrap;connectable=0;strokeColor=#6c8ebf;overflow=hidden;fillColor=none;top=0;left=0;bottom=0;right=0;pointerEvents=1;fontSize=24;" parent="179" vertex="1">
          <mxGeometry width="54" height="32" as="geometry">
            <mxRectangle width="54" height="32" as="alternateBounds" />
          </mxGeometry>
        </mxCell>
        <mxCell id="181" value="&lt;font data-font-src=&quot;https://fonts.googleapis.com/css?family=Linux+Libertine&quot; style=&quot;font-size: 18px;&quot;&gt;3&lt;/font&gt;" style="shape=partialRectangle;html=1;whiteSpace=wrap;connectable=0;strokeColor=inherit;overflow=hidden;fillColor=none;top=0;left=0;bottom=0;right=0;pointerEvents=1;fontSize=24;" parent="179" vertex="1">
          <mxGeometry x="54" width="52" height="32" as="geometry">
            <mxRectangle width="52" height="32" as="alternateBounds" />
          </mxGeometry>
        </mxCell>
        <mxCell id="182" value="&lt;font style=&quot;font-size: 18px;&quot; data-font-src=&quot;https://fonts.googleapis.com/css?family=Linux+Libertine&quot;&gt;10&lt;/font&gt;" style="shape=partialRectangle;html=1;whiteSpace=wrap;connectable=0;strokeColor=#6c8ebf;overflow=hidden;fillColor=none;top=0;left=0;bottom=0;right=0;pointerEvents=1;fontSize=24;" parent="179" vertex="1">
          <mxGeometry x="106" width="54" height="32" as="geometry">
            <mxRectangle width="54" height="32" as="alternateBounds" />
          </mxGeometry>
        </mxCell>
        <mxCell id="187" value="" style="rounded=0;whiteSpace=wrap;html=1;" parent="1" vertex="1">
          <mxGeometry x="474" y="9261" width="86" height="116" as="geometry" />
        </mxCell>
        <mxCell id="188" value="&lt;font size=&quot;1&quot; data-font-src=&quot;https://fonts.googleapis.com/css?family=Linux+Libertine&quot; face=&quot;Linux Libertine&quot; style=&quot;&quot;&gt;&lt;b style=&quot;font-size: 18px;&quot;&gt;Vector RAM&lt;/b&gt;&lt;/font&gt;" style="text;html=1;strokeColor=none;fillColor=none;align=center;verticalAlign=middle;whiteSpace=wrap;rounded=0;" parent="1" vertex="1">
          <mxGeometry x="463" y="9228" width="104" height="30" as="geometry" />
        </mxCell>
        <mxCell id="259" value="&lt;h3&gt;&lt;font data-font-src=&quot;https://fonts.googleapis.com/css?family=Linux+Libertine&quot; face=&quot;Linux Libertine&quot; style=&quot;font-size: 24px; font-weight: normal;&quot;&gt;(c)&lt;/font&gt;&lt;/h3&gt;" style="text;html=1;strokeColor=none;fillColor=none;align=center;verticalAlign=middle;whiteSpace=wrap;rounded=0;fontSize=18;" parent="1" vertex="1">
          <mxGeometry x="205" y="9442" width="282" height="29" as="geometry" />
        </mxCell>
        <mxCell id="260" value="&lt;font style=&quot;font-size: 20px;&quot; face=&quot;Linux Libertine&quot;&gt;thread2&lt;/font&gt;" style="text;html=1;strokeColor=none;fillColor=none;align=center;verticalAlign=middle;whiteSpace=wrap;rounded=0;fontSize=24;" parent="1" vertex="1">
          <mxGeometry x="18" y="9306" width="107" height="30" as="geometry" />
        </mxCell>
        <mxCell id="291" style="edgeStyle=orthogonalEdgeStyle;html=1;fontSize=18;" parent="1" source="261" target="216" edge="1">
          <mxGeometry relative="1" as="geometry">
            <Array as="points">
              <mxPoint x="280" y="9288" />
            </Array>
          </mxGeometry>
        </mxCell>
        <mxCell id="261" value="" style="shape=table;startSize=0;container=1;collapsible=0;childLayout=tableLayout;fontSize=24;" parent="1" vertex="1">
          <mxGeometry x="132.5" y="9242" width="272" height="38" as="geometry" />
        </mxCell>
        <mxCell id="262" value="" style="shape=tableRow;horizontal=0;startSize=0;swimlaneHead=0;swimlaneBody=0;strokeColor=inherit;top=0;left=0;bottom=0;right=0;collapsible=0;dropTarget=0;fillColor=none;points=[[0,0.5],[1,0.5]];portConstraint=eastwest;fontSize=24;" parent="261" vertex="1">
          <mxGeometry width="272" height="38" as="geometry" />
        </mxCell>
        <mxCell id="263" value="" style="shape=partialRectangle;html=1;whiteSpace=wrap;connectable=0;strokeColor=inherit;overflow=hidden;fillColor=none;top=0;left=0;bottom=0;right=0;pointerEvents=1;fontSize=24;strokeWidth=1;" parent="262" vertex="1">
          <mxGeometry width="60" height="38" as="geometry">
            <mxRectangle width="60" height="38" as="alternateBounds" />
          </mxGeometry>
        </mxCell>
        <mxCell id="264" value="&lt;font data-font-src=&quot;https://fonts.googleapis.com/css?family=Linux+Libertine&quot; style=&quot;font-size: 18px;&quot;&gt;&lt;span style=&quot;border-color: var(--border-color); font-family: &amp;quot;Linux Libertine&amp;quot;;&quot;&gt;R&lt;/span&gt;&lt;span style=&quot;border-color: var(--border-color); font-family: &amp;quot;Linux Libertine&amp;quot;;&quot;&gt;[0]&lt;/span&gt;&lt;span style=&quot;border-color: var(--border-color); font-family: &amp;quot;Linux Libertine&amp;quot;;&quot;&gt;&amp;nbsp;+= V&lt;/span&gt;&lt;span style=&quot;border-color: var(--border-color); font-family: &amp;quot;Linux Libertine&amp;quot;; background-color: rgb(255, 204, 230);&quot;&gt;[1]&lt;/span&gt;&lt;span style=&quot;border-color: var(--border-color); font-family: &amp;quot;Linux Libertine&amp;quot;;&quot;&gt;&amp;nbsp;*&amp;nbsp;&lt;/span&gt;&lt;span style=&quot;border-color: var(--border-color); font-family: &amp;quot;Linux Libertine&amp;quot;;&quot;&gt;1&lt;/span&gt;&lt;span style=&quot;border-color: var(--border-color); font-family: &amp;quot;Linux Libertine&amp;quot;;&quot;&gt;&amp;nbsp;&lt;/span&gt;&lt;br&gt;&lt;/font&gt;" style="shape=partialRectangle;html=1;whiteSpace=wrap;connectable=0;strokeColor=inherit;overflow=hidden;fillColor=none;top=0;left=0;bottom=0;right=0;pointerEvents=1;fontSize=24;" parent="262" vertex="1">
          <mxGeometry x="60" width="139" height="38" as="geometry">
            <mxRectangle width="139" height="38" as="alternateBounds" />
          </mxGeometry>
        </mxCell>
        <mxCell id="265" value="" style="shape=partialRectangle;html=1;whiteSpace=wrap;connectable=0;strokeColor=inherit;overflow=hidden;fillColor=none;top=0;left=0;bottom=0;right=0;pointerEvents=1;fontSize=24;" parent="262" vertex="1">
          <mxGeometry x="199" width="73" height="38" as="geometry">
            <mxRectangle width="73" height="38" as="alternateBounds" />
          </mxGeometry>
        </mxCell>
        <mxCell id="266" value="" style="shape=table;startSize=0;container=1;collapsible=0;childLayout=tableLayout;fontSize=24;" parent="1" vertex="1">
          <mxGeometry x="133" y="9302" width="272" height="38" as="geometry" />
        </mxCell>
        <mxCell id="267" value="" style="shape=tableRow;horizontal=0;startSize=0;swimlaneHead=0;swimlaneBody=0;strokeColor=inherit;top=0;left=0;bottom=0;right=0;collapsible=0;dropTarget=0;fillColor=none;points=[[0,0.5],[1,0.5]];portConstraint=eastwest;fontSize=24;" parent="266" vertex="1">
          <mxGeometry width="272" height="38" as="geometry" />
        </mxCell>
        <mxCell id="268" value="" style="shape=partialRectangle;html=1;whiteSpace=wrap;connectable=0;strokeColor=inherit;overflow=hidden;fillColor=none;top=0;left=0;bottom=0;right=0;pointerEvents=1;fontSize=24;strokeWidth=1;" parent="267" vertex="1">
          <mxGeometry width="60" height="38" as="geometry">
            <mxRectangle width="60" height="38" as="alternateBounds" />
          </mxGeometry>
        </mxCell>
        <mxCell id="269" value="&lt;font data-font-src=&quot;https://fonts.googleapis.com/css?family=Linux+Libertine&quot; style=&quot;font-size: 18px;&quot;&gt;&lt;span style=&quot;font-family: &amp;quot;Linux Libertine&amp;quot;;&quot;&gt;R&lt;/span&gt;&lt;span style=&quot;border-color: var(--border-color); font-family: &amp;quot;Linux Libertine&amp;quot;;&quot;&gt;[0]&lt;/span&gt;&lt;span style=&quot;font-family: &amp;quot;Linux Libertine&amp;quot;;&quot;&gt;&amp;nbsp;+= V&lt;/span&gt;&lt;span style=&quot;border-color: var(--border-color); font-family: &amp;quot;Linux Libertine&amp;quot;; background-color: rgb(255, 204, 230);&quot;&gt;[2]&lt;/span&gt;&lt;span style=&quot;font-family: &amp;quot;Linux Libertine&amp;quot;;&quot;&gt;&amp;nbsp;*&amp;nbsp;&lt;/span&gt;&lt;span style=&quot;border-color: var(--border-color); font-family: &amp;quot;Linux Libertine&amp;quot;;&quot;&gt;3&lt;/span&gt;&lt;span style=&quot;font-family: &amp;quot;Linux Libertine&amp;quot;;&quot;&gt;&amp;nbsp;&lt;/span&gt;&lt;br&gt;&lt;/font&gt;" style="shape=partialRectangle;html=1;whiteSpace=wrap;connectable=0;strokeColor=inherit;overflow=hidden;fillColor=none;top=0;left=0;bottom=0;right=0;pointerEvents=1;fontSize=24;" parent="267" vertex="1">
          <mxGeometry x="60" width="139" height="38" as="geometry">
            <mxRectangle width="139" height="38" as="alternateBounds" />
          </mxGeometry>
        </mxCell>
        <mxCell id="270" value="" style="shape=partialRectangle;html=1;whiteSpace=wrap;connectable=0;strokeColor=inherit;overflow=hidden;fillColor=none;top=0;left=0;bottom=0;right=0;pointerEvents=1;fontSize=24;" parent="267" vertex="1">
          <mxGeometry x="199" width="73" height="38" as="geometry">
            <mxRectangle width="73" height="38" as="alternateBounds" />
          </mxGeometry>
        </mxCell>
        <mxCell id="271" value="" style="shape=table;startSize=0;container=1;collapsible=0;childLayout=tableLayout;fontSize=24;" parent="1" vertex="1">
          <mxGeometry x="133" y="9364" width="272" height="38" as="geometry" />
        </mxCell>
        <mxCell id="272" value="" style="shape=tableRow;horizontal=0;startSize=0;swimlaneHead=0;swimlaneBody=0;strokeColor=inherit;top=0;left=0;bottom=0;right=0;collapsible=0;dropTarget=0;fillColor=none;points=[[0,0.5],[1,0.5]];portConstraint=eastwest;fontSize=24;" parent="271" vertex="1">
          <mxGeometry width="272" height="38" as="geometry" />
        </mxCell>
        <mxCell id="273" value="" style="shape=partialRectangle;html=1;whiteSpace=wrap;connectable=0;strokeColor=inherit;overflow=hidden;fillColor=none;top=0;left=0;bottom=0;right=0;pointerEvents=1;fontSize=24;strokeWidth=1;" parent="272" vertex="1">
          <mxGeometry width="60" height="38" as="geometry">
            <mxRectangle width="60" height="38" as="alternateBounds" />
          </mxGeometry>
        </mxCell>
        <mxCell id="274" value="&lt;font data-font-src=&quot;https://fonts.googleapis.com/css?family=Linux+Libertine&quot; style=&quot;font-size: 18px;&quot;&gt;&lt;span style=&quot;border-color: var(--border-color); font-family: &amp;quot;Linux Libertine&amp;quot;;&quot;&gt;R&lt;/span&gt;&lt;span style=&quot;border-color: var(--border-color); font-family: &amp;quot;Linux Libertine&amp;quot;;&quot;&gt;[0]&lt;/span&gt;&lt;span style=&quot;border-color: var(--border-color); font-family: &amp;quot;Linux Libertine&amp;quot;;&quot;&gt;&amp;nbsp;+= V&lt;/span&gt;&lt;span style=&quot;border-color: var(--border-color); font-family: &amp;quot;Linux Libertine&amp;quot;; background-color: rgb(255, 204, 230);&quot;&gt;[3]&lt;/span&gt;&lt;span style=&quot;border-color: var(--border-color); font-family: &amp;quot;Linux Libertine&amp;quot;;&quot;&gt;&amp;nbsp;*&amp;nbsp;&lt;/span&gt;&lt;span style=&quot;border-color: var(--border-color); font-family: &amp;quot;Linux Libertine&amp;quot;;&quot;&gt;10&lt;/span&gt;&lt;span style=&quot;border-color: var(--border-color); font-family: &amp;quot;Linux Libertine&amp;quot;;&quot;&gt;&amp;nbsp;&lt;/span&gt;&lt;br&gt;&lt;/font&gt;" style="shape=partialRectangle;html=1;whiteSpace=wrap;connectable=0;strokeColor=inherit;overflow=hidden;fillColor=none;top=0;left=0;bottom=0;right=0;pointerEvents=1;fontSize=24;" parent="272" vertex="1">
          <mxGeometry x="60" width="142" height="38" as="geometry">
            <mxRectangle width="142" height="38" as="alternateBounds" />
          </mxGeometry>
        </mxCell>
        <mxCell id="275" value="" style="shape=partialRectangle;html=1;whiteSpace=wrap;connectable=0;strokeColor=inherit;overflow=hidden;fillColor=none;top=0;left=0;bottom=0;right=0;pointerEvents=1;fontSize=24;" parent="272" vertex="1">
          <mxGeometry x="202" width="70" height="38" as="geometry">
            <mxRectangle width="70" height="38" as="alternateBounds" />
          </mxGeometry>
        </mxCell>
        <mxCell id="215" value="" style="childLayout=tableLayout;recursiveResize=0;shadow=0;fillColor=none;strokeColor=#000000;fontFamily=Times New Roman;fontColor=#000000;" parent="1" vertex="1">
          <mxGeometry x="477.5" y="9264.5" width="34.25" height="109" as="geometry" />
        </mxCell>
        <mxCell id="216" value="" style="shape=tableRow;horizontal=0;startSize=0;swimlaneHead=0;swimlaneBody=0;top=0;left=0;bottom=0;right=0;dropTarget=0;collapsible=0;recursiveResize=0;expand=0;fontStyle=0;fillColor=none;strokeColor=inherit;fontFamily=Times New Roman;fontColor=#000000;" parent="215" vertex="1">
          <mxGeometry width="34.25" height="36" as="geometry" />
        </mxCell>
        <mxCell id="217" value="" style="connectable=0;recursiveResize=0;strokeColor=inherit;fillColor=none;align=center;whiteSpace=wrap;html=1;fontFamily=Times New Roman;fontColor=#000000;" parent="216" vertex="1">
          <mxGeometry width="34" height="36" as="geometry">
            <mxRectangle width="34" height="36" as="alternateBounds" />
          </mxGeometry>
        </mxCell>
        <mxCell id="218" style="shape=tableRow;horizontal=0;startSize=0;swimlaneHead=0;swimlaneBody=0;top=0;left=0;bottom=0;right=0;dropTarget=0;collapsible=0;recursiveResize=0;expand=0;fontStyle=0;fillColor=none;strokeColor=inherit;fontFamily=Times New Roman;fontColor=#000000;" parent="215" vertex="1">
          <mxGeometry y="36" width="34.25" height="37" as="geometry" />
        </mxCell>
        <mxCell id="219" value="" style="connectable=0;recursiveResize=0;strokeColor=inherit;fillColor=none;align=center;whiteSpace=wrap;html=1;fontFamily=Times New Roman;fontColor=#000000;" parent="218" vertex="1">
          <mxGeometry width="34" height="37" as="geometry">
            <mxRectangle width="34" height="37" as="alternateBounds" />
          </mxGeometry>
        </mxCell>
        <mxCell id="220" style="shape=tableRow;horizontal=0;startSize=0;swimlaneHead=0;swimlaneBody=0;top=0;left=0;bottom=0;right=0;dropTarget=0;collapsible=0;recursiveResize=0;expand=0;fontStyle=0;fillColor=none;strokeColor=inherit;fontFamily=Times New Roman;fontColor=#000000;" parent="215" vertex="1">
          <mxGeometry y="73" width="34.25" height="36" as="geometry" />
        </mxCell>
        <mxCell id="221" value="" style="connectable=0;recursiveResize=0;strokeColor=inherit;fillColor=none;align=center;whiteSpace=wrap;html=1;fontFamily=Times New Roman;fontColor=#000000;" parent="220" vertex="1">
          <mxGeometry width="34" height="36" as="geometry">
            <mxRectangle width="34" height="36" as="alternateBounds" />
          </mxGeometry>
        </mxCell>
        <mxCell id="279" value="&lt;font style=&quot;font-size: 20px;&quot; face=&quot;Linux Libertine&quot;&gt;thread1&lt;/font&gt;" style="text;html=1;strokeColor=none;fillColor=none;align=center;verticalAlign=middle;whiteSpace=wrap;rounded=0;fontSize=24;" parent="1" vertex="1">
          <mxGeometry x="18" y="9246" width="107" height="30" as="geometry" />
        </mxCell>
        <mxCell id="280" value="&lt;font style=&quot;font-size: 20px;&quot; face=&quot;Linux Libertine&quot;&gt;thread3&lt;/font&gt;" style="text;html=1;strokeColor=none;fillColor=none;align=center;verticalAlign=middle;whiteSpace=wrap;rounded=0;fontSize=24;" parent="1" vertex="1">
          <mxGeometry x="18" y="9368" width="107" height="30" as="geometry" />
        </mxCell>
        <mxCell id="281" value="&lt;span style=&quot;color: rgb(0, 0, 0); font-family: &amp;quot;Linux Libertine&amp;quot;; font-size: 18px; font-style: normal; font-variant-ligatures: normal; font-variant-caps: normal; font-weight: 400; letter-spacing: normal; orphans: 2; text-align: center; text-indent: 0px; text-transform: none; widows: 2; word-spacing: 0px; -webkit-text-stroke-width: 0px; background-color: rgb(251, 251, 251); text-decoration-thickness: initial; text-decoration-style: initial; text-decoration-color: initial; float: none; display: inline !important;&quot;&gt;Read&lt;/span&gt;" style="text;whiteSpace=wrap;html=1;" parent="1" vertex="1">
          <mxGeometry x="142" y="9209" width="44" height="38" as="geometry" />
        </mxCell>
        <mxCell id="282" value="&lt;span style=&quot;color: rgb(0, 0, 0); font-family: &amp;quot;Linux Libertine&amp;quot;; font-size: 18px; font-style: normal; font-variant-ligatures: normal; font-variant-caps: normal; font-weight: 400; letter-spacing: normal; orphans: 2; text-align: center; text-indent: 0px; text-transform: none; widows: 2; word-spacing: 0px; -webkit-text-stroke-width: 0px; background-color: rgb(251, 251, 251); text-decoration-thickness: initial; text-decoration-style: initial; text-decoration-color: initial; float: none; display: inline !important;&quot;&gt;Accumulate&lt;/span&gt;" style="text;whiteSpace=wrap;html=1;" parent="1" vertex="1">
          <mxGeometry x="211" y="9209" width="105" height="27" as="geometry" />
        </mxCell>
        <mxCell id="283" value="&lt;span style=&quot;color: rgb(0, 0, 0); font-family: &amp;quot;Linux Libertine&amp;quot;; font-size: 18px; font-style: normal; font-variant-ligatures: normal; font-variant-caps: normal; font-weight: 400; letter-spacing: normal; orphans: 2; text-align: center; text-indent: 0px; text-transform: none; widows: 2; word-spacing: 0px; -webkit-text-stroke-width: 0px; background-color: rgb(251, 251, 251); text-decoration-thickness: initial; text-decoration-style: initial; text-decoration-color: initial; float: none; display: inline !important;&quot;&gt;Write&lt;/span&gt;" style="text;whiteSpace=wrap;html=1;" parent="1" vertex="1">
          <mxGeometry x="342.71000000000004" y="9209" width="51" height="29" as="geometry" />
        </mxCell>
        <mxCell id="284" value="" style="childLayout=tableLayout;recursiveResize=0;shadow=0;fillColor=none;strokeColor=none;fontFamily=Times New Roman;fontColor=#000000;fontSize=18;" parent="1" vertex="1">
          <mxGeometry x="507" y="9264.5" width="34.25" height="109" as="geometry" />
        </mxCell>
        <mxCell id="285" value="" style="shape=tableRow;horizontal=0;startSize=0;swimlaneHead=0;swimlaneBody=0;top=0;left=0;bottom=0;right=0;dropTarget=0;collapsible=0;recursiveResize=0;expand=0;fontStyle=0;fillColor=none;strokeColor=inherit;fontFamily=Times New Roman;fontColor=#000000;" parent="284" vertex="1">
          <mxGeometry width="34.25" height="36" as="geometry" />
        </mxCell>
        <mxCell id="286" value="&lt;font style=&quot;font-size: 18px;&quot;&gt;&lt;i&gt;1&lt;/i&gt;&lt;/font&gt;" style="connectable=0;recursiveResize=0;strokeColor=inherit;fillColor=none;align=center;whiteSpace=wrap;html=1;fontFamily=Times New Roman;fontColor=#000000;" parent="285" vertex="1">
          <mxGeometry width="34" height="36" as="geometry">
            <mxRectangle width="34" height="36" as="alternateBounds" />
          </mxGeometry>
        </mxCell>
        <mxCell id="287" style="shape=tableRow;horizontal=0;startSize=0;swimlaneHead=0;swimlaneBody=0;top=0;left=0;bottom=0;right=0;dropTarget=0;collapsible=0;recursiveResize=0;expand=0;fontStyle=0;fillColor=none;strokeColor=inherit;fontFamily=Times New Roman;fontColor=#000000;" parent="284" vertex="1">
          <mxGeometry y="36" width="34.25" height="37" as="geometry" />
        </mxCell>
        <mxCell id="288" value="&lt;font style=&quot;font-size: 18px;&quot;&gt;&lt;i&gt;2&lt;/i&gt;&lt;/font&gt;" style="connectable=0;recursiveResize=0;strokeColor=inherit;fillColor=none;align=center;whiteSpace=wrap;html=1;fontFamily=Times New Roman;fontColor=#000000;" parent="287" vertex="1">
          <mxGeometry width="34" height="37" as="geometry">
            <mxRectangle width="34" height="37" as="alternateBounds" />
          </mxGeometry>
        </mxCell>
        <mxCell id="289" style="shape=tableRow;horizontal=0;startSize=0;swimlaneHead=0;swimlaneBody=0;top=0;left=0;bottom=0;right=0;dropTarget=0;collapsible=0;recursiveResize=0;expand=0;fontStyle=0;fillColor=none;strokeColor=inherit;fontFamily=Times New Roman;fontColor=#000000;" parent="284" vertex="1">
          <mxGeometry y="73" width="34.25" height="36" as="geometry" />
        </mxCell>
        <mxCell id="290" value="&lt;font style=&quot;font-size: 18px;&quot;&gt;&lt;i&gt;3&lt;/i&gt;&lt;/font&gt;" style="connectable=0;recursiveResize=0;strokeColor=inherit;fillColor=none;align=center;whiteSpace=wrap;html=1;fontFamily=Times New Roman;fontColor=#000000;" parent="289" vertex="1">
          <mxGeometry width="34" height="36" as="geometry">
            <mxRectangle width="34" height="36" as="alternateBounds" />
          </mxGeometry>
        </mxCell>
        <mxCell id="292" style="edgeStyle=orthogonalEdgeStyle;html=1;fontSize=18;" parent="1" source="267" target="218" edge="1">
          <mxGeometry relative="1" as="geometry">
            <Array as="points">
              <mxPoint x="283" y="9351" />
              <mxPoint x="441" y="9351" />
              <mxPoint x="441" y="9319" />
            </Array>
          </mxGeometry>
        </mxCell>
        <mxCell id="293" style="edgeStyle=orthogonalEdgeStyle;html=1;entryX=0;entryY=0.5;entryDx=0;entryDy=0;strokeColor=#000000;fontSize=18;" parent="1" source="272" target="220" edge="1">
          <mxGeometry relative="1" as="geometry">
            <Array as="points">
              <mxPoint x="280" y="9410" />
              <mxPoint x="441" y="9410" />
              <mxPoint x="441" y="9355" />
            </Array>
          </mxGeometry>
        </mxCell>
        <mxCell id="294" value="" style="shape=flexArrow;endArrow=classic;startArrow=classic;html=1;strokeColor=none;fontSize=18;fillColor=#FF3333;width=6;endSize=4.198387096774193;endWidth=9.516129032258064;startWidth=9.516129032258064;startSize=4.84516129032258;" parent="1" edge="1">
          <mxGeometry width="100" height="100" relative="1" as="geometry">
            <mxPoint x="412.5" y="8761" as="sourcePoint" />
            <mxPoint x="412" y="8624" as="targetPoint" />
          </mxGeometry>
        </mxCell>
        <mxCell id="295" value="" style="shape=flexArrow;endArrow=classic;startArrow=classic;html=1;strokeColor=none;fontSize=18;fillColor=#FF3333;width=6;endSize=4.198387096774193;endWidth=9.516129032258064;startWidth=9.516129032258064;startSize=4.84516129032258;" parent="1" edge="1">
          <mxGeometry width="100" height="100" relative="1" as="geometry">
            <mxPoint x="424" y="9085" as="sourcePoint" />
            <mxPoint x="468.25" y="8990" as="targetPoint" />
          </mxGeometry>
        </mxCell>
        <mxCell id="298" value="&lt;div style=&quot;text-align: center;&quot;&gt;&lt;span style=&quot;background-color: initial; font-size: 18px;&quot;&gt;&lt;font color=&quot;#ff3333&quot; face=&quot;Linux Libertine&quot;&gt;3 threads are fetching same vector&lt;/font&gt;&lt;/span&gt;&lt;/div&gt;" style="text;whiteSpace=wrap;html=1;" parent="1" vertex="1">
          <mxGeometry x="469.12" y="9386" width="213.88" height="52" as="geometry" />
        </mxCell>
        <mxCell id="aPfB10VSMuzU0pOmzXPY-299" value="&lt;div style=&quot;text-align: center;&quot;&gt;&lt;span style=&quot;background-color: initial; font-size: 18px;&quot;&gt;&lt;font color=&quot;#ff3333&quot; face=&quot;Linux Libertine&quot;&gt;2 threads are fetching same result&lt;/font&gt;&lt;/span&gt;&lt;/div&gt;" style="text;whiteSpace=wrap;html=1;" vertex="1" parent="1">
          <mxGeometry x="239" y="8652" width="138" height="52" as="geometry" />
        </mxCell>
        <mxCell id="aPfB10VSMuzU0pOmzXPY-302" value="&lt;div style=&quot;text-align: center;&quot;&gt;&lt;span style=&quot;background-color: initial; font-size: 18px;&quot;&gt;&lt;font color=&quot;#ff3333&quot; face=&quot;Linux Libertine&quot;&gt;R[0] are still under calculation&lt;/font&gt;&lt;/span&gt;&lt;/div&gt;" style="text;whiteSpace=wrap;html=1;" vertex="1" parent="1">
          <mxGeometry x="255" y="8998" width="117" height="52" as="geometry" />
        </mxCell>
      </root>
    </mxGraphModel>
  </diagram>
</mxfile>
